<svg width="36" height="36" viewBox="0 0 36 36" fill="none" xmlns="http://www.w3.org/2000/svg">
<g clip-path="url(#clip0_108_2)">
<path d="M35.898 13.7829C35.63 12.9584 34.8785 12.3859 34.0122 12.3471L23.6105 11.877L19.948 2.12875C19.6432 1.31755 18.8669 0.779663 18 0.779663C17.1331 0.779663 16.3568 1.31755 16.0521 2.12875L12.3896 11.877L1.98789 12.3471C1.12157 12.3859 0.370143 12.9584 0.102041 13.7829C-0.16599 14.6074 0.105697 15.5125 0.783299 16.0528L8.92239 22.5474L6.15531 32.5865C5.92539 33.4225 6.23653 34.313 6.93831 34.823C7.64038 35.3325 8.58391 35.3537 9.30813 34.8763L18 29.1426L26.6918 34.8764C27.4161 35.3537 28.3596 35.3325 29.0617 34.8231C29.7635 34.3137 30.0745 33.4225 29.8443 32.5866L27.0777 22.5474L35.2168 16.0528C35.8944 15.5124 36.1661 14.6073 35.898 13.7829Z" fill="#FFD600"/>
</g>
<defs>
<clipPath id="clip0_108_2">
<rect width="36" height="36" fill="white"/>
</clipPath>
</defs>
</svg>